<?plantuml 1.2026.2?><svg xmlns="http://www.w3.org/2000/svg" xmlns:xlink="http://www.w3.org/1999/xlink" contentStyleType="text/css" data-diagram-type="DESCRIPTION" height="224px" preserveAspectRatio="none" style="width:1073px;height:224px;background:#FFFFFF;" version="1.1" viewBox="0 0 1073 224" width="1073px" zoomAndPan="magnify"><defs/><g><!--entity ==Element--><g class="entity" data-qualified-name="..Element" data-source-line="126" id="ent0002"><rect fill="#000000" height="50.2656" rx="2.5" ry="2.5" style="stroke:#000000;stroke-width:2;" width="139.9707" x="15.2" y="7"/><text fill="#FFFFFF" font-family="sans-serif" font-size="26" font-weight="bold" lengthAdjust="spacing" textLength="119.9707" x="25.2" y="41.1338">Element</text></g><!--entity ==Broker--><g class="entity" data-qualified-name="..Broker" data-source-line="130" id="ent0003"><path d="M195.06,12 L303.309,12 C308.309,12 308.309,32.1328 308.309,32.1328 C308.309,32.1328 308.309,52.2656 303.309,52.2656 L195.06,52.2656 C190.06,52.2656 190.06,32.1328 190.06,32.1328 C190.06,32.1328 190.06,12 195.06,12" fill="#4B7BEC" style="stroke:#3456A5;stroke-width:2;"/><path d="M303.309,12 C298.309,12 298.309,32.1328 298.309,32.1328 C298.309,52.2656 303.309,52.2656 303.309,52.2656" fill="none" style="stroke:#3456A5;stroke-width:2;"/><text fill="#FFFFFF" font-family="sans-serif" font-size="26" font-weight="bold" lengthAdjust="spacing" textLength="98.249" x="195.06" y="41.1338">Broker</text></g><!--entity ==Prod--><g class="entity" data-qualified-name="..Prod" data-source-line="132" id="ent0004"><rect fill="#1168BD" height="50.2656" rx="2.5" ry="2.5" style="stroke:#0B4884;stroke-width:2;" width="88.3516" x="343.01" y="7"/><text fill="#FFFFFF" font-family="sans-serif" font-size="26" font-weight="bold" lengthAdjust="spacing" textLength="68.3516" x="353.01" y="41.1338">Prod</text></g><!--entity ==Prod, Database--><g class="entity" data-qualified-name="..Prod. Database" data-source-line="134" id="ent0005"><path d="M6,128.27 C6,118.27 85.1831,118.27 85.1831,118.27 C85.1831,118.27 164.3662,118.27 164.3662,128.27 L164.3662,197.8013 C164.3662,207.8013 85.1831,207.8013 85.1831,207.8013 C85.1831,207.8013 6,207.8013 6,197.8013 L6,128.27" fill="#1C62B9" style="stroke:#134481;stroke-width:2;"/><path d="M6,128.27 C6,138.27 85.1831,138.27 85.1831,138.27 C85.1831,138.27 164.3662,138.27 164.3662,128.27" fill="none" style="stroke:#134481;stroke-width:2;"/><text fill="#FFFFFF" font-family="sans-serif" font-size="26" font-weight="bold" lengthAdjust="spacing" textLength="78.2285" x="46.0688" y="166.4038">Prod,</text><text fill="#FFFFFF" font-family="sans-serif" font-size="26" font-weight="bold" lengthAdjust="spacing" textLength="138.3662" x="16" y="196.6694">Database</text></g><!--entity ==Prod, Standby--><g class="entity" data-qualified-name="..Prod. Standby" data-source-line="136" id="ent0006"><rect fill="#E0E0E0" height="80.5313" rx="2.5" ry="2.5" style="stroke:#9C9C9C;stroke-width:2;" width="141.3799" x="199.49" y="122.77"/><text fill="#888888" font-family="sans-serif" font-size="26" font-weight="bold" lengthAdjust="spacing" textLength="78.2285" x="231.0657" y="156.9038">Prod,</text><text fill="#888888" font-family="sans-serif" font-size="26" font-weight="bold" lengthAdjust="spacing" textLength="121.3799" x="209.49" y="187.1694">Standby</text></g><!--entity ==Safety--><g class="entity" data-qualified-name="..Safety" data-source-line="138" id="ent0007"><rect fill="#C0392B" height="50.2656" rx="2.5" ry="2.5" style="stroke:#86271E;stroke-width:2;" width="114.5928" x="375.89" y="137.9"/><text fill="#FFFFFF" font-family="sans-serif" font-size="26" font-weight="bold" lengthAdjust="spacing" textLength="94.5928" x="385.89" y="172.0338">Safety</text></g><!--entity 1--><g class="entity" data-qualified-name="1" data-source-line="140" id="ent0008"><rect fill="none" height="36.2969" rx="2.5" ry="2.5" style="stroke:none;stroke-width:0.5;" width="24.4502" x="465.96" y="13.99"/></g><!--entity 2--><g class="entity" data-qualified-name="2" data-source-line="143" id="ent0010"><rect fill="none" height="36.2969" rx="2.5" ry="2.5" style="stroke:none;stroke-width:0.5;" width="24.4502" x="702.96" y="13.99"/></g><!--entity 3--><g class="entity" data-qualified-name="3" data-source-line="146" id="ent0012"><rect fill="none" height="36.2969" rx="2.5" ry="2.5" style="stroke:none;stroke-width:0.5;" width="24.4502" x="876.96" y="13.99"/></g><!--link 1 to 1--><g class="link" data-entity-1="ent0008" data-entity-2="ent0008" data-link-type="dependency" data-source-line="141" id="lnk9"><path d="M490.76,24.82 C506.57,18.94 525.41,21.38 525.41,32.14 C525.41,42.89 512.1937,47.4215 496.3837,41.5415" fill="none" id="1-to-1" style="stroke:#444444;stroke-width:2;stroke-dasharray:10,10;"/><polygon fill="#444444" points="490.76,39.45,497.8011,46.3364,495.4464,41.1929,500.5898,38.8382,490.76,39.45" style="stroke:#444444;stroke-width:2;"/><text fill="#444444" font-family="sans-serif" font-size="24" lengthAdjust="spacing" textLength="148.4063" x="531.41" y="40.9173">Relationship</text></g><!--link 2 to 2--><g class="link" data-entity-1="ent0010" data-entity-2="ent0010" data-link-type="dependency" data-source-line="144" id="lnk11"><path d="M727.76,24.82 C743.57,18.94 762.41,21.38 762.41,32.14 C762.41,42.89 749.1937,47.4215 733.3837,41.5415" fill="none" id="2-to-2" style="stroke:#E67E22;stroke-width:2;stroke-dasharray:10,10;"/><polygon fill="#E67E22" points="727.76,39.45,734.8011,46.3364,732.4464,41.1929,737.5898,38.8382,727.76,39.45" style="stroke:#E67E22;stroke-width:2;"/><text fill="#E67E22" font-family="sans-serif" font-size="24" lengthAdjust="spacing" textLength="85.9688" x="768.41" y="40.9173">Publish</text></g><!--link 3 to 3--><g class="link" data-entity-1="ent0012" data-entity-2="ent0012" data-link-type="dependency" data-source-line="147" id="lnk13"><path d="M901.76,24.82 C917.57,18.94 936.41,21.38 936.41,32.14 C936.41,42.89 923.1937,47.4215 907.3837,41.5415" fill="none" id="3-to-3" style="stroke:#F1C40F;stroke-width:2;stroke-dasharray:10,10;"/><polygon fill="#F1C40F" points="901.76,39.45,908.8011,46.3364,906.4464,41.1929,911.5898,38.8382,901.76,39.45" style="stroke:#F1C40F;stroke-width:2;"/><text fill="#F1C40F" font-family="sans-serif" font-size="24" lengthAdjust="spacing" textLength="117.9141" x="942.41" y="40.9173">Subscribe</text></g><?plantuml-src vPPjRzem4CVVvrDOx2sq90GA393wH3kfGorqfUax9pc8Xx6PuwZGgTzzpaExb3omhj8aD4SWShdp__oByPqF4lcmmW9BBX3Z33IFk81y2GAutAn0qtg-t50OQ0W9pYNwgNuWT8ATnLpmWBcdd7BHHPzcqVWSFHro9b_iPZH2-xFw71wYSmfBO5BT72G_Q-FfcjhJky0zxlSB1UhHY0Mk28CY-oHCjujIbbkFE0i6ljz5HZR1xSGdv4c56sPikUI2F2ahfiUKp5cORXSvwXj4x33niCiV2Pk_Idx5Qx8CbbFYIazD5EVsTl7L4y4N878PdAvFdML7FDn_AMPXsaSsE5aM3RFPmiqzOt4jk5j0uaQHM1HIqFLMstPpTeHjjjlc7bAedc69RUn36Owhyx7dNWo9TJ-YnMYSbc5ticZqXccszNr4Cv6OkVQcbCnmLBUcpON55iL_7QY7LvPCnmclloVJZiO_9ZF1Cv15J6wjwGDrBqjOEFL6nx2pBDejuqY7FTabOw1O4ivyZwn24kdxshVbdM_TZrUsqNp25_GnGP6_XDHIzNfDpzaalujPKP7BBZWdpUfrO5FYUplJlHgUwDPolNACUV-3gKFh28oSTxLjtvNw9B1zHn0R_Y3vaMwnqNTdISd3JV-Z2vZfZbdFQJ2sxJaBIBKSPx2YV1FUZRWB_r7d8GLclkhqr0G8OXveffe-aNg5FY8CKPW3UrEGRrEX1OnIisSuPPwb66mzUzPwXqcxgGbmr94_fu0g_NwIIWNrUYLlS50IbjThXlu_0WWYtxWbotLDjMGPYR0u5GH5HIaCS9Eo_k9VHI-5lYmoNUXpPQieAOgbiwIAOcQMk7uKXB_MZwsmWz0_RtCC1WZxIDTqLAiDaAwyIiy7vTv5bRHBvJqwXcP4EiOkdVGX6cicn--xv1fQ8v9hx9PxU-p5ag_7PaNx1G00?></g></svg>