<?plantuml 1.2026.2?><svg xmlns="http://www.w3.org/2000/svg" xmlns:xlink="http://www.w3.org/1999/xlink" contentStyleType="text/css" data-diagram-type="DESCRIPTION" height="385px" preserveAspectRatio="none" style="width:1522px;height:385px;background:#FFFFFF;" version="1.1" viewBox="0 0 1522 385" width="1522px" zoomAndPan="magnify"><defs/><g><!--entity ==Element--><g class="entity" data-qualified-name="..Element" data-source-line="178" id="ent0002"><rect fill="#000000" height="50.2656" rx="2.5" ry="2.5" style="stroke:#000000;stroke-width:2;" width="139.9707" x="54.91" y="22.13"/><text fill="#FFFFFF" font-family="sans-serif" font-size="26" font-weight="bold" lengthAdjust="spacing" textLength="119.9707" x="64.91" y="56.2638">Element</text></g><!--entity ==Broker--><g class="entity" data-qualified-name="..Broker" data-source-line="182" id="ent0003"><path d="M234.77,27.13 L343.019,27.13 C348.019,27.13 348.019,47.2628 348.019,47.2628 C348.019,47.2628 348.019,67.3956 343.019,67.3956 L234.77,67.3956 C229.77,67.3956 229.77,47.2628 229.77,47.2628 C229.77,47.2628 229.77,27.13 234.77,27.13" fill="#4B7BEC" style="stroke:#3456A5;stroke-width:2;"/><path d="M343.019,27.13 C338.019,27.13 338.019,47.2628 338.019,47.2628 C338.019,67.3956 343.019,67.3956 343.019,67.3956" fill="none" style="stroke:#3456A5;stroke-width:2;"/><text fill="#FFFFFF" font-family="sans-serif" font-size="26" font-weight="bold" lengthAdjust="spacing" textLength="98.249" x="234.77" y="56.2638">Broker</text></g><!--entity ==Infrastructure--><g class="entity" data-qualified-name="..Infrastructure" data-source-line="184" id="ent0004"><rect fill="#555555" height="50.2656" rx="10" ry="10" style="stroke:#3B3B3B;stroke-width:2;" width="225.9053" x="382.94" y="22.13"/><text fill="#FFFFFF" font-family="sans-serif" font-size="26" font-weight="bold" lengthAdjust="spacing" textLength="205.9053" x="392.94" y="56.2638">Infrastructure</text></g><!--entity ==Infrastructure, GeoRouting--><g class="entity" data-qualified-name="..Infrastructure. GeoRouting" data-source-line="186" id="ent0005"><rect fill="#2C3E50" height="80.5313" rx="10" ry="10" style="stroke:#1E2B38;stroke-width:2;" width="235.7822" x="644" y="7"/><text fill="#FFFFFF" font-family="sans-serif" font-size="26" font-weight="bold" lengthAdjust="spacing" textLength="215.7822" x="654" y="41.1338">Infrastructure,</text><text fill="#FFFFFF" font-family="sans-serif" font-size="26" font-weight="bold" lengthAdjust="spacing" textLength="171.6914" x="676.0454" y="71.3994">GeoRouting</text></g><!--entity ==Infrastructure, Safety--><g class="entity" data-qualified-name="..Infrastructure. Safety" data-source-line="188" id="ent0006"><rect fill="#C0392B" height="80.5313" rx="10" ry="10" style="stroke:#86271E;stroke-width:2;" width="235.7822" x="7" y="153.03"/><text fill="#FFFFFF" font-family="sans-serif" font-size="26" font-weight="bold" lengthAdjust="spacing" textLength="215.7822" x="17" y="187.1638">Infrastructure,</text><text fill="#FFFFFF" font-family="sans-serif" font-size="26" font-weight="bold" lengthAdjust="spacing" textLength="94.5928" x="77.5947" y="217.4294">Safety</text></g><!--entity ==Infrastructure, Standby--><g class="entity" data-qualified-name="..Infrastructure. Standby" data-source-line="190" id="ent0007"><rect fill="#E0E0E0" height="80.5313" rx="10" ry="10" style="stroke:#9C9C9C;stroke-width:2;" width="235.7822" x="278" y="153.03"/><text fill="#888888" font-family="sans-serif" font-size="26" font-weight="bold" lengthAdjust="spacing" textLength="215.7822" x="288" y="187.1638">Infrastructure,</text><text fill="#888888" font-family="sans-serif" font-size="26" font-weight="bold" lengthAdjust="spacing" textLength="121.3799" x="335.2012" y="217.4294">Standby</text></g><!--entity ==Prod--><g class="entity" data-qualified-name="..Prod" data-source-line="192" id="ent0008"><rect fill="#1168BD" height="50.2656" rx="2.5" ry="2.5" style="stroke:#0B4884;stroke-width:2;" width="88.3516" x="548.72" y="168.16"/><text fill="#FFFFFF" font-family="sans-serif" font-size="26" font-weight="bold" lengthAdjust="spacing" textLength="68.3516" x="558.72" y="202.2938">Prod</text></g><!--entity ==Prod, Database--><g class="entity" data-qualified-name="..Prod. Database" data-source-line="194" id="ent0009"><path d="M671.71,158.53 C671.71,148.53 750.8931,148.53 750.8931,148.53 C750.8931,148.53 830.0762,148.53 830.0762,158.53 L830.0762,228.0612 C830.0762,238.0612 750.8931,238.0612 750.8931,238.0612 C750.8931,238.0612 671.71,238.0612 671.71,228.0612 L671.71,158.53" fill="#1C62B9" style="stroke:#134481;stroke-width:2;"/><path d="M671.71,158.53 C671.71,168.53 750.8931,168.53 750.8931,168.53 C750.8931,168.53 830.0762,168.53 830.0762,158.53" fill="none" style="stroke:#134481;stroke-width:2;"/><text fill="#FFFFFF" font-family="sans-serif" font-size="26" font-weight="bold" lengthAdjust="spacing" textLength="78.2285" x="711.7788" y="196.6638">Prod,</text><text fill="#FFFFFF" font-family="sans-serif" font-size="26" font-weight="bold" lengthAdjust="spacing" textLength="138.3662" x="681.71" y="226.9294">Database</text></g><!--entity ==Prod, Standby--><g class="entity" data-qualified-name="..Prod. Standby" data-source-line="196" id="ent0010"><rect fill="#E0E0E0" height="80.5313" rx="2.5" ry="2.5" style="stroke:#9C9C9C;stroke-width:2;" width="141.3799" x="54.2" y="299.06"/><text fill="#888888" font-family="sans-serif" font-size="26" font-weight="bold" lengthAdjust="spacing" textLength="78.2285" x="85.7757" y="333.1938">Prod,</text><text fill="#888888" font-family="sans-serif" font-size="26" font-weight="bold" lengthAdjust="spacing" textLength="121.3799" x="64.2" y="363.4594">Standby</text></g><!--entity ==Safety--><g class="entity" data-qualified-name="..Safety" data-source-line="198" id="ent0011"><rect fill="#C0392B" height="50.2656" rx="2.5" ry="2.5" style="stroke:#86271E;stroke-width:2;" width="114.5928" x="230.59" y="314.19"/><text fill="#FFFFFF" font-family="sans-serif" font-size="26" font-weight="bold" lengthAdjust="spacing" textLength="94.5928" x="240.59" y="348.3238">Safety</text></g><!--entity 1--><g class="entity" data-qualified-name="1" data-source-line="200" id="ent0012"><rect fill="none" height="36.2969" rx="2.5" ry="2.5" style="stroke:none;stroke-width:0.5;" width="24.4502" x="914.67" y="29.11"/></g><!--entity 2--><g class="entity" data-qualified-name="2" data-source-line="203" id="ent0014"><rect fill="none" height="36.2969" rx="2.5" ry="2.5" style="stroke:none;stroke-width:0.5;" width="24.4502" x="1151.67" y="29.11"/></g><!--entity 3--><g class="entity" data-qualified-name="3" data-source-line="206" id="ent0016"><rect fill="none" height="36.2969" rx="2.5" ry="2.5" style="stroke:none;stroke-width:0.5;" width="24.4502" x="1325.67" y="29.11"/></g><!--link 1 to 1--><g class="link" data-entity-1="ent0012" data-entity-2="ent0012" data-link-type="dependency" data-source-line="201" id="lnk13"><path d="M939.47,37.96 C955.28,30.48 974.12,33.58 974.12,47.26 C974.12,60.94 960.7023,66.6188 944.8923,59.1288" fill="none" id="1-to-1" style="stroke:#444444;stroke-width:2;stroke-dasharray:10,10;"/><polygon fill="#444444" points="939.47,56.56,945.8909,64.0281,943.9886,58.7007,949.316,56.7984,939.47,56.56" style="stroke:#444444;stroke-width:2;"/><text fill="#444444" font-family="sans-serif" font-size="24" lengthAdjust="spacing" textLength="148.4063" x="980.12" y="56.0373">Relationship</text></g><!--link 2 to 2--><g class="link" data-entity-1="ent0014" data-entity-2="ent0014" data-link-type="dependency" data-source-line="204" id="lnk15"><path d="M1176.47,37.96 C1192.28,30.48 1211.12,33.58 1211.12,47.26 C1211.12,60.94 1197.7023,66.6188 1181.8923,59.1288" fill="none" id="2-to-2" style="stroke:#E67E22;stroke-width:2;stroke-dasharray:10,10;"/><polygon fill="#E67E22" points="1176.47,56.56,1182.8909,64.0281,1180.9886,58.7007,1186.316,56.7984,1176.47,56.56" style="stroke:#E67E22;stroke-width:2;"/><text fill="#E67E22" font-family="sans-serif" font-size="24" lengthAdjust="spacing" textLength="85.9688" x="1217.12" y="56.0373">Publish</text></g><!--link 3 to 3--><g class="link" data-entity-1="ent0016" data-entity-2="ent0016" data-link-type="dependency" data-source-line="207" id="lnk17"><path d="M1350.47,37.96 C1366.28,30.48 1385.12,33.58 1385.12,47.26 C1385.12,60.94 1371.7023,66.6188 1355.8923,59.1288" fill="none" id="3-to-3" style="stroke:#F1C40F;stroke-width:2;stroke-dasharray:10,10;"/><polygon fill="#F1C40F" points="1350.47,56.56,1356.8909,64.0281,1354.9886,58.7007,1360.316,56.7984,1350.47,56.56" style="stroke:#F1C40F;stroke-width:2;"/><text fill="#F1C40F" font-family="sans-serif" font-size="24" lengthAdjust="spacing" textLength="117.9141" x="1391.12" y="56.0373">Subscribe</text></g><?plantuml-src vPVhK-8m4C2_zw_8S5_Xf0yGE6365px6OnGy4BubxGALad1fEe8t_k-NjgYLFf0xHqyl7PWstUnkVasokou8vC8SSomOHvHHK2Qs1SWLm869vHmKfUwAfGDD1I7Ec42_v0r2-zYSZZdpg7N07CPhwCieQD-2jor6nKE_4JI__rx-TdRGaGCpe48-V5tT5ZhzXKFwFS_QQpHI3HI35XeujocazNTzTsieqdCriSqf1TUj8ItkuBhZNVjE3jUCiEU4SVjEzc9dpx77r7UtXapv3pmKw4wmnMvjEduq-Hqlx9atwzkMc4X5eM_F9v_VvsmAF971mUB0d5NvyFeqdOL1TWcOSHQwKIhZqWTZSKf77Bk2UwRmEAGmEIEpuN9mtIwQj7TZdVIMmykCjL8AMW8Vub_RyUc4YZa5xi_WduIMFmOc_HHIoulvTHSdmtwrI_HU4VTBD9MbPkfGIjXtAcX4htn2bbqy0h7SWkFLe3zqh9Df-deqYtfL8t66bRAsgy9dP2WmjSXM4AtZbZSyFYkbGeIYVyKXLat_UcM8bQ2zCSGBpgmKP9So9anJqQXgkKAiXDX8Z4h5-63nmAUGFyG24-n25expeyv4hXfRhYGd7OrPraWruVZI3QEYVaGqsNih9DDg5mVzqdH0CmwbrznFxxvrCW_jjpsWtssLTC31mcRKdTXpdqJqkV1ZrdC7rvqvqKft-DYvNQ58da9agcgne2OiagUqFYtTZqyumStyXKSSsvriTFUyjQyEPekvgOqRV-awb7T1I_XMw_sRNEzwn3MvJU05phVL0MtVc3F7ZkIjVpg1aMeQnOHIQxq_OGAHukiGvWvR-azjPi5_L8C9ZgahQrwf04780ura-SiZdz15DaKEZ84-2yXNaQ4fZ2BQOvnYxo8CrjxTA_MTLU6jS33baJzs0EKQZPKhELIlPtp1PiQmfAhRb__fWHV8XiLfecYaE8sPU9u2fWnFhECsgCgZf_BcnMhNofkD9i80ieNwnw2oMNKOiBVH_P0CntJx6K2AeY3o-mEiLUxq89z73zbKriXeDfLeTjD4Ofb7J4icupIUNttvf1tOR2Bi8bLHKQ7GHAgKoZo4fNWDvQ8YkMtiQ8eMsD4ssOb6gj3cAiPjPKvNzC2SljdSyzWIcdoCJJdbDm00?></g></svg>