<?plantuml 1.2026.2?><svg xmlns="http://www.w3.org/2000/svg" xmlns:xlink="http://www.w3.org/1999/xlink" contentStyleType="text/css" data-diagram-type="DESCRIPTION" height="255px" preserveAspectRatio="none" style="width:1073px;height:255px;background:#FFFFFF;" version="1.1" viewBox="0 0 1073 255" width="1073px" zoomAndPan="magnify"><defs/><g><!--entity ==Element--><g class="entity" data-qualified-name="..Element" data-source-line="223" id="ent0002"><rect fill="#000000" height="50.2656" rx="2.5" ry="2.5" style="stroke:#000000;stroke-width:2;" width="139.9707" x="15.2" y="7"/><text fill="#FFFFFF" font-family="sans-serif" font-size="26" font-weight="bold" lengthAdjust="spacing" textLength="119.9707" x="25.2" y="41.1338">Element</text></g><!--entity ==Broker--><g class="entity" data-qualified-name="..Broker" data-source-line="225" id="ent0003"><path d="M195.06,12 L303.309,12 C308.309,12 308.309,32.1328 308.309,32.1328 C308.309,32.1328 308.309,52.2656 303.309,52.2656 L195.06,52.2656 C190.06,52.2656 190.06,32.1328 190.06,32.1328 C190.06,32.1328 190.06,12 195.06,12" fill="#4B7BEC" style="stroke:#3456A5;stroke-width:2;"/><path d="M303.309,12 C298.309,12 298.309,32.1328 298.309,32.1328 C298.309,52.2656 303.309,52.2656 303.309,52.2656" fill="none" style="stroke:#3456A5;stroke-width:2;"/><text fill="#FFFFFF" font-family="sans-serif" font-size="26" font-weight="bold" lengthAdjust="spacing" textLength="98.249" x="195.06" y="41.1338">Broker</text></g><!--entity ==Prod--><g class="entity" data-qualified-name="..Prod" data-source-line="227" id="ent0004"><rect fill="#1168BD" height="50.2656" rx="2.5" ry="2.5" style="stroke:#0B4884;stroke-width:2;" width="88.3516" x="343.01" y="7"/><text fill="#FFFFFF" font-family="sans-serif" font-size="26" font-weight="bold" lengthAdjust="spacing" textLength="68.3516" x="353.01" y="41.1338">Prod</text></g><!--entity ==Prod, Database--><g class="entity" data-qualified-name="..Prod. Database" data-source-line="229" id="ent0005"><path d="M6,143.4 C6,133.4 85.1831,133.4 85.1831,133.4 C85.1831,133.4 164.3662,133.4 164.3662,143.4 L164.3662,212.9313 C164.3662,222.9313 85.1831,222.9313 85.1831,222.9313 C85.1831,222.9313 6,222.9313 6,212.9313 L6,143.4" fill="#1C62B9" style="stroke:#134481;stroke-width:2;"/><path d="M6,143.4 C6,153.4 85.1831,153.4 85.1831,153.4 C85.1831,153.4 164.3662,153.4 164.3662,143.4" fill="none" style="stroke:#134481;stroke-width:2;"/><text fill="#FFFFFF" font-family="sans-serif" font-size="26" font-weight="bold" lengthAdjust="spacing" textLength="78.2285" x="46.0688" y="181.5338">Prod,</text><text fill="#FFFFFF" font-family="sans-serif" font-size="26" font-weight="bold" lengthAdjust="spacing" textLength="138.3662" x="16" y="211.7994">Database</text></g><!--entity ==Prod, Database, Cache--><g class="entity" data-qualified-name="..Prod. Database. Cache" data-source-line="231" id="ent0006"><path d="M199.06,128.26 C199.06,118.26 283.1816,118.26 283.1816,118.26 C283.1816,118.26 367.3032,118.26 367.3032,128.26 L367.3032,228.0569 C367.3032,238.0569 283.1816,238.0569 283.1816,238.0569 C283.1816,238.0569 199.06,238.0569 199.06,228.0569 L199.06,128.26" fill="#3498DB" style="stroke:#246A99;stroke-width:2;"/><path d="M199.06,128.26 C199.06,138.26 283.1816,138.26 283.1816,138.26 C283.1816,138.26 367.3032,138.26 367.3032,128.26" fill="none" style="stroke:#246A99;stroke-width:2;"/><text fill="#FFFFFF" font-family="sans-serif" font-size="26" font-weight="bold" lengthAdjust="spacing" textLength="78.2285" x="244.0673" y="166.3938">Prod,</text><text fill="#FFFFFF" font-family="sans-serif" font-size="26" font-weight="bold" lengthAdjust="spacing" textLength="148.2432" x="209.06" y="196.6594">Database,</text><text fill="#FFFFFF" font-family="sans-serif" font-size="26" font-weight="bold" lengthAdjust="spacing" textLength="88.1816" x="239.0908" y="226.925">Cache</text></g><!--entity 1--><g class="entity" data-qualified-name="1" data-source-line="233" id="ent0007"><rect fill="none" height="36.2969" rx="2.5" ry="2.5" style="stroke:none;stroke-width:0.5;" width="24.4502" x="465.96" y="13.98"/></g><!--entity 2--><g class="entity" data-qualified-name="2" data-source-line="236" id="ent0009"><rect fill="none" height="36.2969" rx="2.5" ry="2.5" style="stroke:none;stroke-width:0.5;" width="24.4502" x="702.96" y="13.98"/></g><!--entity 3--><g class="entity" data-qualified-name="3" data-source-line="239" id="ent0011"><rect fill="none" height="36.2969" rx="2.5" ry="2.5" style="stroke:none;stroke-width:0.5;" width="24.4502" x="876.96" y="13.98"/></g><!--link 1 to 1--><g class="link" data-entity-1="ent0007" data-entity-2="ent0007" data-link-type="dependency" data-source-line="234" id="lnk8"><path d="M490.76,24.82 C506.57,18.94 525.41,21.37 525.41,32.13 C525.41,42.89 512.1937,47.4115 496.3837,41.5315" fill="none" id="1-to-1" style="stroke:#444444;stroke-width:2;stroke-dasharray:10,10;"/><polygon fill="#444444" points="490.76,39.44,497.8011,46.3264,495.4464,41.1829,500.5898,38.8282,490.76,39.44" style="stroke:#444444;stroke-width:2;"/><text fill="#444444" font-family="sans-serif" font-size="24" lengthAdjust="spacing" textLength="148.4063" x="531.41" y="40.9073">Relationship</text></g><!--link 2 to 2--><g class="link" data-entity-1="ent0009" data-entity-2="ent0009" data-link-type="dependency" data-source-line="237" id="lnk10"><path d="M727.76,24.82 C743.57,18.94 762.41,21.37 762.41,32.13 C762.41,42.89 749.1937,47.4115 733.3837,41.5315" fill="none" id="2-to-2" style="stroke:#E67E22;stroke-width:2;stroke-dasharray:10,10;"/><polygon fill="#E67E22" points="727.76,39.44,734.8011,46.3264,732.4464,41.1829,737.5898,38.8282,727.76,39.44" style="stroke:#E67E22;stroke-width:2;"/><text fill="#E67E22" font-family="sans-serif" font-size="24" lengthAdjust="spacing" textLength="85.9688" x="768.41" y="40.9073">Publish</text></g><!--link 3 to 3--><g class="link" data-entity-1="ent0011" data-entity-2="ent0011" data-link-type="dependency" data-source-line="240" id="lnk12"><path d="M901.76,24.82 C917.57,18.94 936.41,21.37 936.41,32.13 C936.41,42.89 923.1937,47.4115 907.3837,41.5315" fill="none" id="3-to-3" style="stroke:#F1C40F;stroke-width:2;stroke-dasharray:10,10;"/><polygon fill="#F1C40F" points="901.76,39.44,908.8011,46.3264,906.4464,41.1829,911.5898,38.8282,901.76,39.44" style="stroke:#F1C40F;stroke-width:2;"/><text fill="#F1C40F" font-family="sans-serif" font-size="24" lengthAdjust="spacing" textLength="117.9141" x="942.41" y="40.9073">Subscribe</text></g><?plantuml-src tLXHSw8w57xdLsJSLzrAH5VSuapjLjnErsjjrUfR2Aba1S86iEhE_lSRqEwc2jRUVRc56GKE9pdd-o0v-HAI28GaG1n5Z0EV-KHng4r0615EMBGEYAASXz7Q9Mq50CvO17wA2m0w22_cdCM-VSbSnblWmsDwV4wVTfaVFTkrz4ZilyJlx0nSkSGZVYHkFkukAyF9ohKcuzY-C8pS0DNqs0QueJx9izybwRQ0PBbtA5xu90nR01uck9_u7Ts8vb3RMdgCqusm8lV2fNC_IRS5iFWdVEjmvo2RFL5__ZlaDxIYNknDg1qvegDjRY_1bpkSBGZFvE1oTOazdSyUlkPpeLcVB88FkQXfzGQglpCk1fpPEKpS2YOMkIoeQgDfsHbVXAKrczexPA7y1KN8GY4vHiVDrT2npIwTFlJTV6fm0rhw8JLgJTEQwdkcfdo9i7CoGJTNVMSAdNoYQfhUjAr3eg3MGBh-JeWQ4XT5bFcXGuE46Vc-ClB6uVHX65Ymla6c-xIZ8Xk215MjLjICwVRFV9utpny2paYpF8WjbuREg-dUT3lgr5i56CwDlqoTD3uHcF6kzkslfNuNMo7cr28d9DzNftx_E_PSEhir_XR0eugrQaQDtRTd031PDuvYJi10fFl8k9Vatab60kBhoX3gflqmLB4tce_CbHW-ioNsgiP9rVv_N8ntu2zyvAuZYiC4j2c019NRITsnUcuLJVgRDwEKltK99Qp0Kt4U6ot_7MU7iOKmIYWzVOcW6y-U3ACmABzmkYHSUfV3tdLWU-CrBXBABaUnBM7qhnrxSbiSV2PX4ZeuNXO6MPz5z97Yj2hyWNZlwMAocGLJs1LdFIuCt7-uM8-54T_7Mxl-Zipnnkw93zTqbzQyG8DpWDQ9hpG7ZSnkFLs4zhuL2YQB3r3MnjL2pRG3Jl6BgZaIzMHQjAef1gWV1eWBJq2soWc8TI3Wqler1DG7BfaJ_uKWlvUQvj0XzNv0oS4p2UpUir_A-TbkkqdX14V8dxi4b0nZbqe9d9zdRHgrXV-FcCIfxtPl9TDLsbjfxuT8L6PEerHM9WtidGXzzY-3PrbwhAKiI8_tKWQfkZsrisTrkuVbOz8-w-srsm25G5LKKAcqWIgyZgeNuTu29Tcbz9OuK85f7FXQ75dYRMFknE6RmjMKMXgkzdgubw9i6_Atg2if_m80?></g></svg>