<?plantuml 1.2026.2?><svg xmlns="http://www.w3.org/2000/svg" xmlns:xlink="http://www.w3.org/1999/xlink" contentStyleType="text/css" data-diagram-type="DESCRIPTION" height="316px" preserveAspectRatio="none" style="width:1208px;height:316px;background:#FFFFFF;" version="1.1" viewBox="0 0 1208 316" width="1208px" zoomAndPan="magnify"><defs/><g><!--entity ==Element--><g class="entity" data-qualified-name="..Element" data-source-line="161" id="ent0002"><rect fill="#000000" height="50.2656" rx="2.5" ry="2.5" style="stroke:#000000;stroke-width:2;" width="139.9707" x="49.97" y="7"/><text fill="#FFFFFF" font-family="sans-serif" font-size="26" font-weight="bold" lengthAdjust="spacing" textLength="119.9707" x="59.97" y="41.1338">Element</text></g><!--entity ==Broker--><g class="entity" data-qualified-name="..Broker" data-source-line="163" id="ent0003"><path d="M229.83,12 L338.079,12 C343.079,12 343.079,32.1328 343.079,32.1328 C343.079,32.1328 343.079,52.2656 338.079,52.2656 L229.83,52.2656 C224.83,52.2656 224.83,32.1328 224.83,32.1328 C224.83,32.1328 224.83,12 229.83,12" fill="#4B7BEC" style="stroke:#3456A5;stroke-width:2;"/><path d="M338.079,12 C333.079,12 333.079,32.1328 333.079,32.1328 C333.079,52.2656 338.079,52.2656 338.079,52.2656" fill="none" style="stroke:#3456A5;stroke-width:2;"/><text fill="#FFFFFF" font-family="sans-serif" font-size="26" font-weight="bold" lengthAdjust="spacing" textLength="98.249" x="229.83" y="41.1338">Broker</text></g><!--entity ==Component--><g class="entity" data-qualified-name="..Component" data-source-line="165" id="ent0004"><rect fill="#85BBF0" height="50.2656" rx="2.5" ry="2.5" style="stroke:#5D82A8;stroke-width:2;" width="187.5908" x="378.16" y="7"/><text fill="#000000" font-family="sans-serif" font-size="26" font-weight="bold" lengthAdjust="spacing" textLength="167.5908" x="388.16" y="41.1338">Component</text></g><!--entity ==Component, Infrastructure--><g class="entity" data-qualified-name="..Component. Infrastructure" data-source-line="167" id="ent0005"><rect fill="#555555" height="80.5313" rx="10" ry="10" style="stroke:#3B3B3B;stroke-width:2;" width="225.9053" x="7" y="118.26"/><text fill="#000000" font-family="sans-serif" font-size="26" font-weight="bold" lengthAdjust="spacing" textLength="177.4678" x="31.2188" y="152.3938">Component,</text><text fill="#000000" font-family="sans-serif" font-size="26" font-weight="bold" lengthAdjust="spacing" textLength="205.9053" x="17" y="182.6594">Infrastructure</text></g><!--entity ==Infrastructure--><g class="entity" data-qualified-name="..Infrastructure" data-source-line="169" id="ent0006"><rect fill="#555555" height="50.2656" rx="10" ry="10" style="stroke:#3B3B3B;stroke-width:2;" width="225.9053" x="268" y="133.4"/><text fill="#FFFFFF" font-family="sans-serif" font-size="26" font-weight="bold" lengthAdjust="spacing" textLength="205.9053" x="278" y="167.5338">Infrastructure</text></g><!--entity ==Person--><g class="entity" data-qualified-name="..Person" data-source-line="171" id="ent0007"><rect fill="#08427B" height="50.2656" rx="2.5" ry="2.5" style="stroke:#052E56;stroke-width:2;" width="121.3594" x="529.27" y="133.4"/><text fill="#FFFFFF" font-family="sans-serif" font-size="26" font-weight="bold" lengthAdjust="spacing" textLength="101.3594" x="539.27" y="167.5338">Person</text></g><!--entity ==Prod--><g class="entity" data-qualified-name="..Prod" data-source-line="173" id="ent0008"><rect fill="#1168BD" height="50.2656" rx="2.5" ry="2.5" style="stroke:#0B4884;stroke-width:2;" width="88.3516" x="75.78" y="259.79"/><text fill="#FFFFFF" font-family="sans-serif" font-size="26" font-weight="bold" lengthAdjust="spacing" textLength="68.3516" x="85.78" y="293.9238">Prod</text></g><!--entity 1--><g class="entity" data-qualified-name="1" data-source-line="175" id="ent0009"><rect fill="none" height="36.2969" rx="2.5" ry="2.5" style="stroke:none;stroke-width:0.5;" width="24.4502" x="600.73" y="13.98"/></g><!--entity 2--><g class="entity" data-qualified-name="2" data-source-line="178" id="ent0011"><rect fill="none" height="36.2969" rx="2.5" ry="2.5" style="stroke:none;stroke-width:0.5;" width="24.4502" x="837.73" y="13.98"/></g><!--entity 3--><g class="entity" data-qualified-name="3" data-source-line="181" id="ent0013"><rect fill="none" height="36.2969" rx="2.5" ry="2.5" style="stroke:none;stroke-width:0.5;" width="24.4502" x="1011.73" y="13.98"/></g><!--link 1 to 1--><g class="link" data-entity-1="ent0009" data-entity-2="ent0009" data-link-type="dependency" data-source-line="176" id="lnk10"><path d="M625.53,24.82 C641.34,18.94 660.18,21.37 660.18,32.13 C660.18,42.89 646.9637,47.4115 631.1537,41.5315" fill="none" id="1-to-1" style="stroke:#444444;stroke-width:2;stroke-dasharray:10,10;"/><polygon fill="#444444" points="625.53,39.44,632.5711,46.3264,630.2164,41.1829,635.3598,38.8282,625.53,39.44" style="stroke:#444444;stroke-width:2;"/><text fill="#444444" font-family="sans-serif" font-size="24" lengthAdjust="spacing" textLength="148.4063" x="666.18" y="40.9073">Relationship</text></g><!--link 2 to 2--><g class="link" data-entity-1="ent0011" data-entity-2="ent0011" data-link-type="dependency" data-source-line="179" id="lnk12"><path d="M862.53,24.82 C878.34,18.94 897.18,21.37 897.18,32.13 C897.18,42.89 883.9637,47.4115 868.1537,41.5315" fill="none" id="2-to-2" style="stroke:#E67E22;stroke-width:2;stroke-dasharray:10,10;"/><polygon fill="#E67E22" points="862.53,39.44,869.5711,46.3264,867.2164,41.1829,872.3598,38.8282,862.53,39.44" style="stroke:#E67E22;stroke-width:2;"/><text fill="#E67E22" font-family="sans-serif" font-size="24" lengthAdjust="spacing" textLength="85.9688" x="903.18" y="40.9073">Publish</text></g><!--link 3 to 3--><g class="link" data-entity-1="ent0013" data-entity-2="ent0013" data-link-type="dependency" data-source-line="182" id="lnk14"><path d="M1036.53,24.82 C1052.34,18.94 1071.18,21.37 1071.18,32.13 C1071.18,42.89 1057.9637,47.4115 1042.1537,41.5315" fill="none" id="3-to-3" style="stroke:#F1C40F;stroke-width:2;stroke-dasharray:10,10;"/><polygon fill="#F1C40F" points="1036.53,39.44,1043.5711,46.3264,1041.2164,41.1829,1046.3598,38.8282,1036.53,39.44" style="stroke:#F1C40F;stroke-width:2;"/><text fill="#F1C40F" font-family="sans-serif" font-size="24" lengthAdjust="spacing" textLength="117.9141" x="1077.18" y="40.9073">Subscribe</text></g><?plantuml-src tLTTSjem47xtAJJq5H9ix40eC1DeGc3I33y90TuaMu23BL7PJe1ENdgE7gGpdVOCz4QLRPeQa0D9fcrICMRizQvsly_Ixih1Bd3m13BeKWO89LWQcGO6ZeiPfkviWYMfuBWp2vSa01YbBlZ8Rm0eGtqyPDGZHeLQbEN1cq4mtWPlJoXnVydLOFZoEtxjxuDZ2zkOkFnXRtcRQbrDBNJLyOoZOZ7MGJeOeOCpa-0uUTiFDmyYaekHgOy9TfmyK3O3N0-yRSwvkQA6abFAp3cNGkl8CeV43pSFTFwFMQZG7a63tffaUE_oFPoQjcTVcOOxuXE5iQs2JvOP7MCcvA0ohUZs8UjtQ_5Sg2YBiBx9HKRL3g3sohYeK7l2LrxCagXCto55laMAPY7IZASafo4q42mFpSWfCFTqIgBBw-zJagoH0OEEoppTzHZUWI6dVQNPkdqoDqxhSY_JadNxCfurBHY2XOJyt-DOQuKJCuAPZ-k5KBaJWNLazsUzxdbQ9vrhuxGpwpUBBuIqVx8b6vWvbCIGrUntwtEag0-awfogP94WLMiArWvUMNfgC6h4CS4JzJYM1La-o253m09ISpdrbR3GmXPqJKgSaJdnMOW-foxjZjFhjYOyzSnXrRfTKY66484gfrEo85N_RXNYMeXDm88mamqFMQOpsXhksKbPxjdJYQuCYyyC7HzaiIBuLkloRQ6tFUJep4HuX-3FvHuvlzPjounagwS26CYwcXQqR-jo0O2ZHWrKeOjluSoFkkpl0SXcgMQdNAyT6oEZsidqkkFYJgtZS_Ff7zmeIxXLUkBvfGGq-DSPK6QlW6ufXrMZ6rJTuMLroi7tRtGx_NZmBwojNO9VV5vyNtpZrzV5bn-VLf2dw_FcZLivJ9zbczvXHKttQlyBQfT1ul1J4jS4E2m3W7zvm28Rr04c0HOUOh9IBIuYfZ5aH6RV86JZNGJishixgR2_FAf93Eik94CBWqInk0mb0Ge5qO6hnFK_UDWBTCDpYL0rSYufhRkuxrTZB5TQ-7Zh95ZjrdQOJTZkRdZOQLfX4xWnLTWQnKnntnfjcl4k8ix8xoBM3FPyNT4YAfK0T80ioI2LAW6PQprO9RXw7YIYAed7-54a9V2ZRFCJBQMXpsKHVfIxZ9G9t6MskrijVg7B--APa7u2?></g></svg>