<?plantuml 1.2026.2?><svg xmlns="http://www.w3.org/2000/svg" xmlns:xlink="http://www.w3.org/1999/xlink" contentStyleType="text/css" data-diagram-type="DESCRIPTION" height="182px" preserveAspectRatio="none" style="width:1213px;height:182px;background:#FFFFFF;" version="1.1" viewBox="0 0 1213 182" width="1213px" zoomAndPan="magnify"><defs/><g><!--entity ==AnalyticsPipe--><g class="entity" data-qualified-name="..AnalyticsPipe" data-source-line="158" id="ent0002"><rect fill="#218C74" height="50.2656" rx="2.5" ry="2.5" style="stroke:#176251;stroke-width:2;" width="218.4785" x="7" y="10.5"/><text fill="#FFFFFF" font-family="sans-serif" font-size="26" font-weight="bold" lengthAdjust="spacing" textLength="198.4785" x="17" y="44.6338">AnalyticsPipe</text></g><!--entity ==Broker--><g class="entity" data-qualified-name="..Broker" data-source-line="160" id="ent0003"><path d="M265.11,15.5 L373.359,15.5 C378.359,15.5 378.359,35.6328 378.359,35.6328 C378.359,35.6328 378.359,55.7656 373.359,55.7656 L265.11,55.7656 C260.11,55.7656 260.11,35.6328 260.11,35.6328 C260.11,35.6328 260.11,15.5 265.11,15.5" fill="#4B7BEC" style="stroke:#3456A5;stroke-width:2;"/><path d="M373.359,15.5 C368.359,15.5 368.359,35.6328 368.359,35.6328 C368.359,55.7656 373.359,55.7656 373.359,55.7656" fill="none" style="stroke:#3456A5;stroke-width:2;"/><text fill="#FFFFFF" font-family="sans-serif" font-size="26" font-weight="bold" lengthAdjust="spacing" textLength="98.249" x="265.11" y="44.6338">Broker</text></g><!--entity ==Database--><g class="entity" data-qualified-name="..Database" data-source-line="162" id="ent0004"><path d="M413.06,16 C413.06,6 492.2431,6 492.2431,6 C492.2431,6 571.4262,6 571.4262,16 L571.4262,55.2656 C571.4262,65.2656 492.2431,65.2656 492.2431,65.2656 C492.2431,65.2656 413.06,65.2656 413.06,55.2656 L413.06,16" fill="#1C62B9" style="stroke:#134481;stroke-width:2;"/><path d="M413.06,16 C413.06,26 492.2431,26 492.2431,26 C492.2431,26 571.4262,26 571.4262,16" fill="none" style="stroke:#134481;stroke-width:2;"/><text fill="#FFFFFF" font-family="sans-serif" font-size="26" font-weight="bold" lengthAdjust="spacing" textLength="138.3662" x="423.06" y="54.1338">Database</text></g><!--entity ==Observability--><g class="entity" data-qualified-name="..Observability" data-source-line="164" id="ent0005"><rect fill="#8E44AD" height="50.2656" rx="2.5" ry="2.5" style="stroke:#632F79;stroke-width:2;" width="215.8633" x="8.31" y="126.26"/><text fill="#FFFFFF" font-family="sans-serif" font-size="26" font-weight="bold" lengthAdjust="spacing" textLength="195.8633" x="18.31" y="160.3938">Observability</text></g><!--entity ==Person--><g class="entity" data-qualified-name="..Person" data-source-line="166" id="ent0006"><rect fill="#08427B" height="50.2656" rx="2.5" ry="2.5" style="stroke:#052E56;stroke-width:2;" width="121.3594" x="259.56" y="126.26"/><text fill="#FFFFFF" font-family="sans-serif" font-size="26" font-weight="bold" lengthAdjust="spacing" textLength="101.3594" x="269.56" y="160.3938">Person</text></g><!--entity ==Prod--><g class="entity" data-qualified-name="..Prod" data-source-line="168" id="ent0007"><rect fill="#1168BD" height="50.2656" rx="2.5" ry="2.5" style="stroke:#0B4884;stroke-width:2;" width="88.3516" x="416.06" y="126.26"/><text fill="#FFFFFF" font-family="sans-serif" font-size="26" font-weight="bold" lengthAdjust="spacing" textLength="68.3516" x="426.06" y="160.3938">Prod</text></g><!--entity 1--><g class="entity" data-qualified-name="1" data-source-line="170" id="ent0008"><rect fill="none" height="36.2969" rx="2.5" ry="2.5" style="stroke:none;stroke-width:0.5;" width="24.4502" x="606.01" y="17.48"/></g><!--entity 2--><g class="entity" data-qualified-name="2" data-source-line="173" id="ent0010"><rect fill="none" height="36.2969" rx="2.5" ry="2.5" style="stroke:none;stroke-width:0.5;" width="24.4502" x="843.01" y="17.48"/></g><!--entity 3--><g class="entity" data-qualified-name="3" data-source-line="176" id="ent0012"><rect fill="none" height="36.2969" rx="2.5" ry="2.5" style="stroke:none;stroke-width:0.5;" width="24.4502" x="1017.01" y="17.48"/></g><!--link 1 to 1--><g class="link" data-entity-1="ent0008" data-entity-2="ent0008" data-link-type="dependency" data-source-line="171" id="lnk9"><path d="M630.81,27.73 C646.63,21.37 665.46,24 665.46,35.63 C665.46,47.26 652.197,52.128 636.377,45.768" fill="none" id="1-to-1" style="stroke:#444444;stroke-width:2;stroke-dasharray:10,10;"/><polygon fill="#444444" points="630.81,43.53,637.6684,50.5984,635.4491,45.395,640.6525,43.1758,630.81,43.53" style="stroke:#444444;stroke-width:2;"/><text fill="#444444" font-family="sans-serif" font-size="24" lengthAdjust="spacing" textLength="148.4063" x="671.46" y="44.4073">Relationship</text></g><!--link 2 to 2--><g class="link" data-entity-1="ent0010" data-entity-2="ent0010" data-link-type="dependency" data-source-line="174" id="lnk11"><path d="M867.81,27.73 C883.63,21.37 902.46,24 902.46,35.63 C902.46,47.26 889.197,52.128 873.377,45.768" fill="none" id="2-to-2" style="stroke:#E67E22;stroke-width:2;stroke-dasharray:10,10;"/><polygon fill="#E67E22" points="867.81,43.53,874.6684,50.5984,872.4491,45.395,877.6525,43.1758,867.81,43.53" style="stroke:#E67E22;stroke-width:2;"/><text fill="#E67E22" font-family="sans-serif" font-size="24" lengthAdjust="spacing" textLength="85.9688" x="908.46" y="44.4073">Publish</text></g><!--link 3 to 3--><g class="link" data-entity-1="ent0012" data-entity-2="ent0012" data-link-type="dependency" data-source-line="177" id="lnk13"><path d="M1041.81,27.73 C1057.63,21.37 1076.46,24 1076.46,35.63 C1076.46,47.26 1063.197,52.128 1047.377,45.768" fill="none" id="3-to-3" style="stroke:#F1C40F;stroke-width:2;stroke-dasharray:10,10;"/><polygon fill="#F1C40F" points="1041.81,43.53,1048.6684,50.5984,1046.4491,45.395,1051.6525,43.1758,1041.81,43.53" style="stroke:#F1C40F;stroke-width:2;"/><text fill="#F1C40F" font-family="sans-serif" font-size="24" lengthAdjust="spacing" textLength="117.9141" x="1082.46" y="44.4073">Subscribe</text></g><?plantuml-src tLVRSk8u47ttLwYOrp2nXRc43LGDsO4aDPCb98JBcoGhM1jPzaXs1jZAluyCX1XivJBxigoheA3LhUvptArkAHe3HICaKHnA8491BPzv5AYOIXh6YuXQrgcA5vosBG1a6CRW7_q3W0uY3pCP9i8x2taec-3J_UhvOxNQ3KNyB7TNJof_qf_ZO_2Lqu2A-EYBG7mHCwBwJBi1uFDceJmOpJaUtINUsRo3WwwYuq4qgLnTet676zr3fq7gxjhzDoReizofrs3LUP7Vf62Qm7wHtFgCF0YgL1F0VFZxi6xOKfl3ZQVpKBAbbYB-XREPICDl0gA_gLmhtFZ82tyoCTkw_8xcB4Y24VDYNszasmNKT6JuGAM1apCIdCZf-A9bvCB5TKn9dekAMwsXwe5nyIUA4KRAb25V9-E1Fmcwo-broyo8GseGdnHaHyLr6uUM7NzXHUKZmeopU66WfJyHLvo8gQQ6ApGUL8tKDAZh8YzFJQq2x-id1qPDdqeL2WCdrzFnvH93rvmcTiE5TPpdmgv2MgqT6XSoz4nCw2FamLmiJgs12pB2ncwZuHu82mFAKSn2eNmMfIna_vU7mPtIvqQ4ONM9UlpdXefY21ceZbrsx3mnBotErFhoW0l2FEedc3Fblndkjsx7cGJpYC1Pwr-6Jcjr2WlUrRxyhT1l4go8P9Y-8_WhHnzEVvE0iyoP_Ri0xXtYsWLZnxwy040lx2Pn8Ydewt3lGncaiNVIIa1oKHx0avut7ZWa6Cw6lRdlzQQF9B1Rxng0TifczVndocO3VZjzWMWpVlKqcgXyFQhw-9pRQ7Irl3ZlHAGt_3ZaRE9d8CCoV2_erqhdzq7dEkSQyosyNEhU02UZomZtk4rV6oKE3NFQ1W2I5BtW7PvVFaxFEZu9xlp_3SvO8g7qJKPh0hfkUK0NDP2PmqW19W2dCofsEkDjnjH0HsRt72MvjGpOlRKdw_HuSvso92Kn4ZDEGQdLshaCbS3fwNikGsszou-49giTrdS6W-dspf2QU9k9EhLwdguDTZlJTNi_w9roCkoG6qHpkwndDeFvTcRBc-cyDXcbuysUmUTKj-YDjzi0AU1O3YYNsy3HMg-sBwtU1AMiIkaZVg05LtxWMtwoFNxjSpCTVCXTnQgit5NUThVRbTSkjrszPFq2?></g></svg>