<?plantuml 1.2026.2?><svg xmlns="http://www.w3.org/2000/svg" xmlns:xlink="http://www.w3.org/1999/xlink" contentStyleType="text/css" data-diagram-type="DESCRIPTION" height="174px" preserveAspectRatio="none" style="width:1393px;height:174px;background:#FFFFFF;" version="1.1" viewBox="0 0 1393 174" width="1393px" zoomAndPan="magnify"><defs/><g><!--entity ==Element--><g class="entity" data-qualified-name="..Element" data-source-line="111" id="ent0002"><rect fill="#000000" height="50.2656" rx="2.5" ry="2.5" style="stroke:#000000;stroke-width:2;" width="139.9707" x="7" y="7"/><text fill="#FFFFFF" font-family="sans-serif" font-size="26" font-weight="bold" lengthAdjust="spacing" textLength="119.9707" x="17" y="41.1338">Element</text></g><!--entity ==Broker--><g class="entity" data-qualified-name="..Broker" data-source-line="113" id="ent0003"><path d="M186.86,12 L295.109,12 C300.109,12 300.109,32.1328 300.109,32.1328 C300.109,32.1328 300.109,52.2656 295.109,52.2656 L186.86,52.2656 C181.86,52.2656 181.86,32.1328 181.86,32.1328 C181.86,32.1328 181.86,12 186.86,12" fill="#4B7BEC" style="stroke:#3456A5;stroke-width:2;"/><path d="M295.109,12 C290.109,12 290.109,32.1328 290.109,32.1328 C290.109,52.2656 295.109,52.2656 295.109,52.2656" fill="none" style="stroke:#3456A5;stroke-width:2;"/><text fill="#FFFFFF" font-family="sans-serif" font-size="26" font-weight="bold" lengthAdjust="spacing" textLength="98.249" x="186.86" y="41.1338">Broker</text></g><!--entity ==Infrastructure--><g class="entity" data-qualified-name="..Infrastructure" data-source-line="115" id="ent0004"><rect fill="#555555" height="50.2656" rx="10" ry="10" style="stroke:#3B3B3B;stroke-width:2;" width="225.9053" x="335.03" y="7"/><text fill="#FFFFFF" font-family="sans-serif" font-size="26" font-weight="bold" lengthAdjust="spacing" textLength="205.9053" x="345.03" y="41.1338">Infrastructure</text></g><!--entity ==Person--><g class="entity" data-qualified-name="..Person" data-source-line="117" id="ent0005"><rect fill="#08427B" height="50.2656" rx="2.5" ry="2.5" style="stroke:#052E56;stroke-width:2;" width="121.3594" x="16.31" y="118.26"/><text fill="#FFFFFF" font-family="sans-serif" font-size="26" font-weight="bold" lengthAdjust="spacing" textLength="101.3594" x="26.31" y="152.3938">Person</text></g><!--entity ==Prod--><g class="entity" data-qualified-name="..Prod" data-source-line="119" id="ent0006"><rect fill="#1168BD" height="50.2656" rx="2.5" ry="2.5" style="stroke:#0B4884;stroke-width:2;" width="88.3516" x="172.81" y="118.26"/><text fill="#FFFFFF" font-family="sans-serif" font-size="26" font-weight="bold" lengthAdjust="spacing" textLength="68.3516" x="182.81" y="152.3938">Prod</text></g><!--entity 1--><g class="entity" data-qualified-name="1" data-source-line="121" id="ent0007"><rect fill="none" height="36.2969" rx="2.5" ry="2.5" style="stroke:none;stroke-width:0.5;" width="24.4502" x="595.76" y="13.98"/></g><!--entity 2--><g class="entity" data-qualified-name="2" data-source-line="124" id="ent0009"><rect fill="none" height="36.2969" rx="2.5" ry="2.5" style="stroke:none;stroke-width:0.5;" width="24.4502" x="832.76" y="13.98"/></g><!--entity 3--><g class="entity" data-qualified-name="3" data-source-line="127" id="ent0011"><rect fill="none" height="36.2969" rx="2.5" ry="2.5" style="stroke:none;stroke-width:0.5;" width="24.4502" x="1022.76" y="13.98"/></g><!--entity 4--><g class="entity" data-qualified-name="4" data-source-line="130" id="ent0013"><rect fill="none" height="36.2969" rx="2.5" ry="2.5" style="stroke:none;stroke-width:0.5;" width="24.4502" x="1196.76" y="13.98"/></g><!--link 1 to 1--><g class="link" data-entity-1="ent0007" data-entity-2="ent0007" data-link-type="dependency" data-source-line="122" id="lnk8"><path d="M620.56,24.82 C636.38,18.94 655.21,21.37 655.21,32.13 C655.21,42.89 642.0029,47.4235 626.1829,41.5335" fill="none" id="1-to-1" style="stroke:#444444;stroke-width:2;stroke-dasharray:10,10;"/><polygon fill="#444444" points="620.56,39.44,627.5987,46.3289,625.2458,41.1846,630.39,38.8316,620.56,39.44" style="stroke:#444444;stroke-width:2;"/><text fill="#444444" font-family="sans-serif" font-size="24" lengthAdjust="spacing" textLength="148.4063" x="661.21" y="40.9073">Relationship</text></g><!--link 2 to 2--><g class="link" data-entity-1="ent0009" data-entity-2="ent0009" data-link-type="dependency" data-source-line="125" id="lnk10"><path d="M857.56,24.82 C873.38,18.94 892.21,21.37 892.21,32.13 C892.21,42.89 879.0029,47.4235 863.1829,41.5335" fill="none" id="2-to-2" style="stroke:#7F8C8D;stroke-width:2;stroke-dasharray:10,10;"/><polygon fill="#7F8C8D" points="857.56,39.44,864.5987,46.3289,862.2458,41.1846,867.39,38.8316,857.56,39.44" style="stroke:#7F8C8D;stroke-width:2;"/><text fill="#7F8C8D" font-family="sans-serif" font-size="24" lengthAdjust="spacing" textLength="101.4727" x="898.21" y="40.9073">LogicApi</text></g><!--link 3 to 3--><g class="link" data-entity-1="ent0011" data-entity-2="ent0011" data-link-type="dependency" data-source-line="128" id="lnk12"><path d="M1047.56,24.82 C1063.38,18.94 1082.21,21.37 1082.21,32.13 C1082.21,42.89 1069.0029,47.4235 1053.1829,41.5335" fill="none" id="3-to-3" style="stroke:#E67E22;stroke-width:2;stroke-dasharray:10,10;"/><polygon fill="#E67E22" points="1047.56,39.44,1054.5987,46.3289,1052.2458,41.1846,1057.39,38.8316,1047.56,39.44" style="stroke:#E67E22;stroke-width:2;"/><text fill="#E67E22" font-family="sans-serif" font-size="24" lengthAdjust="spacing" textLength="85.9688" x="1088.21" y="40.9073">Publish</text></g><!--link 4 to 4--><g class="link" data-entity-1="ent0013" data-entity-2="ent0013" data-link-type="dependency" data-source-line="131" id="lnk14"><path d="M1221.56,24.82 C1237.38,18.94 1256.21,21.37 1256.21,32.13 C1256.21,42.89 1243.0029,47.4235 1227.1829,41.5335" fill="none" id="4-to-4" style="stroke:#F1C40F;stroke-width:2;stroke-dasharray:10,10;"/><polygon fill="#F1C40F" points="1221.56,39.44,1228.5987,46.3289,1226.2458,41.1846,1231.39,38.8316,1221.56,39.44" style="stroke:#F1C40F;stroke-width:2;"/><text fill="#F1C40F" font-family="sans-serif" font-size="24" lengthAdjust="spacing" textLength="117.9141" x="1262.21" y="40.9073">Subscribe</text></g><?plantuml-src rLRRSjem47ttLsZeQqYmCPTIO2PaaYOPcaaW9S2RBujHi2LNaXkWat-lR9FK-1ANvgKH0sElLZfd3zhLSX28WsymGr2622MWBB4DY0jWGCN61qNfSh5neQyWn2WLw9TyG6XWM2k7qO3OPzIbh8C-BQBn9Pgze4IysFLeXFPd-JqvGUSkU424V3dUFLP73slNV9W4zcclLmXGYqOCCCG4YkpZa6u79IptIsoj273UGLgMO9hu66_bSasFBPUKuQsq6kwfYnqIqkqWI_u2Ynt6IyEcJvWuhv3VZ3Ns0ky1ss8fDugvxGT_D61q1InNWxFrcULzPlFfLR4MkjaomSfgKTSRJQFnmRIu8WjcSC42ImGC2ZIvDhtvPZQzgLbaycXVJZRpkpVEIYCQEVgOuUSmVKRnnem02oFuJqIx1SOfAH3hRZwztfgQ_aOojNMjPUOaKqE3HlE37Q1RHkqY9MGghGfLKDLcsxHpL33rTbl_82gCm3K4feGliH-ga7olVlScV3OT-QRMs1fVtQUT5FaX949LQrKrfzR-AUP5HJuRS0xDeo5ri7NgurA-m_FrpxdcFjvD1_uxkRSMRQjjPxcdxMNSRmFJnNnPJlrYeCwyjMzfJk-TrA7P0YtddANjPTJ7WSajXatu2_8twepSF5gUYnELzby3MAYMNijf3jBsd004CmYN7OhC3mHnWgE5R5POWZv7c20N721xTU0-iRIW12Hspx3Ep2MOf-QUbUx9harI65Z288uBgDBhxQXKKBURr-pqfV-F08B8D-u9SbqJFK4_3R5_VHOipxq-Crl5bqh15g-NIdQPhBz5YyBwcrfm7Fhc_KdzFZ8uKXKLLQjzf4glDy-eTE-WIjAbSWYEfcWHZbQ6awn1CUPB-Je8hwxK8xnwALwYSCHukv9p49okw16SNWwtd-env6kfg2Y_0G00?></g></svg>