<?plantuml 1.2026.2?><svg xmlns="http://www.w3.org/2000/svg" xmlns:xlink="http://www.w3.org/1999/xlink" contentStyleType="text/css" data-diagram-type="DESCRIPTION" height="174px" preserveAspectRatio="none" style="width:1233px;height:174px;background:#FFFFFF;" version="1.1" viewBox="0 0 1233 174" width="1233px" zoomAndPan="magnify"><defs/><g><!--entity ==Element--><g class="entity" data-qualified-name="..Element" data-source-line="158" id="ent0002"><rect fill="#000000" height="50.2656" rx="2.5" ry="2.5" style="stroke:#000000;stroke-width:2;" width="139.9707" x="44.95" y="7"/><text fill="#FFFFFF" font-family="sans-serif" font-size="26" font-weight="bold" lengthAdjust="spacing" textLength="119.9707" x="54.95" y="41.1338">Element</text></g><!--entity ==AnalyticsPipe--><g class="entity" data-qualified-name="..AnalyticsPipe" data-source-line="160" id="ent0003"><rect fill="#218C74" height="50.2656" rx="2.5" ry="2.5" style="stroke:#176251;stroke-width:2;" width="218.4785" x="219.69" y="7"/><text fill="#FFFFFF" font-family="sans-serif" font-size="26" font-weight="bold" lengthAdjust="spacing" textLength="198.4785" x="229.69" y="41.1338">AnalyticsPipe</text></g><!--entity ==Broker--><g class="entity" data-qualified-name="..Broker" data-source-line="162" id="ent0004"><path d="M477.81,12 L586.059,12 C591.059,12 591.059,32.1328 591.059,32.1328 C591.059,32.1328 591.059,52.2656 586.059,52.2656 L477.81,52.2656 C472.81,52.2656 472.81,32.1328 472.81,32.1328 C472.81,32.1328 472.81,12 477.81,12" fill="#4B7BEC" style="stroke:#3456A5;stroke-width:2;"/><path d="M586.059,12 C581.059,12 581.059,32.1328 581.059,32.1328 C581.059,52.2656 586.059,52.2656 586.059,52.2656" fill="none" style="stroke:#3456A5;stroke-width:2;"/><text fill="#FFFFFF" font-family="sans-serif" font-size="26" font-weight="bold" lengthAdjust="spacing" textLength="98.249" x="477.81" y="41.1338">Broker</text></g><!--entity ==Observability--><g class="entity" data-qualified-name="..Observability" data-source-line="164" id="ent0005"><rect fill="#8E44AD" height="50.2656" rx="2.5" ry="2.5" style="stroke:#632F79;stroke-width:2;" width="215.8633" x="7" y="118.26"/><text fill="#FFFFFF" font-family="sans-serif" font-size="26" font-weight="bold" lengthAdjust="spacing" textLength="195.8633" x="17" y="152.3938">Observability</text></g><!--entity ==Person--><g class="entity" data-qualified-name="..Person" data-source-line="166" id="ent0006"><rect fill="#08427B" height="50.2656" rx="2.5" ry="2.5" style="stroke:#052E56;stroke-width:2;" width="121.3594" x="258.25" y="118.26"/><text fill="#FFFFFF" font-family="sans-serif" font-size="26" font-weight="bold" lengthAdjust="spacing" textLength="101.3594" x="268.25" y="152.3938">Person</text></g><!--entity ==Prod--><g class="entity" data-qualified-name="..Prod" data-source-line="168" id="ent0007"><rect fill="#1168BD" height="50.2656" rx="2.5" ry="2.5" style="stroke:#0B4884;stroke-width:2;" width="88.3516" x="414.76" y="118.26"/><text fill="#FFFFFF" font-family="sans-serif" font-size="26" font-weight="bold" lengthAdjust="spacing" textLength="68.3516" x="424.76" y="152.3938">Prod</text></g><!--entity 1--><g class="entity" data-qualified-name="1" data-source-line="170" id="ent0008"><rect fill="none" height="36.2969" rx="2.5" ry="2.5" style="stroke:none;stroke-width:0.5;" width="24.4502" x="625.71" y="13.98"/></g><!--entity 2--><g class="entity" data-qualified-name="2" data-source-line="173" id="ent0010"><rect fill="none" height="36.2969" rx="2.5" ry="2.5" style="stroke:none;stroke-width:0.5;" width="24.4502" x="862.71" y="13.98"/></g><!--entity 3--><g class="entity" data-qualified-name="3" data-source-line="176" id="ent0012"><rect fill="none" height="36.2969" rx="2.5" ry="2.5" style="stroke:none;stroke-width:0.5;" width="24.4502" x="1036.71" y="13.98"/></g><!--link 1 to 1--><g class="link" data-entity-1="ent0008" data-entity-2="ent0008" data-link-type="dependency" data-source-line="171" id="lnk9"><path d="M650.51,24.82 C666.32,18.94 685.16,21.37 685.16,32.13 C685.16,42.89 671.9425,47.4247 656.1325,41.5347" fill="none" id="1-to-1" style="stroke:#444444;stroke-width:2;stroke-dasharray:10,10;"/><polygon fill="#444444" points="650.51,39.44,657.5473,46.3303,655.1954,41.1855,660.3402,38.8337,650.51,39.44" style="stroke:#444444;stroke-width:2;"/><text fill="#444444" font-family="sans-serif" font-size="24" lengthAdjust="spacing" textLength="148.4063" x="691.16" y="40.9073">Relationship</text></g><!--link 2 to 2--><g class="link" data-entity-1="ent0010" data-entity-2="ent0010" data-link-type="dependency" data-source-line="174" id="lnk11"><path d="M887.51,24.82 C903.32,18.94 922.16,21.37 922.16,32.13 C922.16,42.89 908.9425,47.4247 893.1325,41.5347" fill="none" id="2-to-2" style="stroke:#E67E22;stroke-width:2;stroke-dasharray:10,10;"/><polygon fill="#E67E22" points="887.51,39.44,894.5473,46.3303,892.1954,41.1855,897.3402,38.8337,887.51,39.44" style="stroke:#E67E22;stroke-width:2;"/><text fill="#E67E22" font-family="sans-serif" font-size="24" lengthAdjust="spacing" textLength="85.9688" x="928.16" y="40.9073">Publish</text></g><!--link 3 to 3--><g class="link" data-entity-1="ent0012" data-entity-2="ent0012" data-link-type="dependency" data-source-line="177" id="lnk13"><path d="M1061.51,24.82 C1077.32,18.94 1096.16,21.37 1096.16,32.13 C1096.16,42.89 1082.9425,47.4247 1067.1325,41.5347" fill="none" id="3-to-3" style="stroke:#F1C40F;stroke-width:2;stroke-dasharray:10,10;"/><polygon fill="#F1C40F" points="1061.51,39.44,1068.5473,46.3303,1066.1954,41.1855,1071.3402,38.8337,1061.51,39.44" style="stroke:#F1C40F;stroke-width:2;"/><text fill="#F1C40F" font-family="sans-serif" font-size="24" lengthAdjust="spacing" textLength="117.9141" x="1102.16" y="40.9073">Subscribe</text></g><?plantuml-src tLVRSjem47ttLsZeQqYmC9VGc9cGAQIPD0LouV8csmAho98hsGdGoRzNnfGQR8TaqeSIpy3OwrtjdcD9UoHn02JsaK015u1nXZMNE1Z800lCWuMFDUrC1WkAcne0WlC0_58t0BIGFPiA7ZBdWbCk6k3JP7LzNhrjSnRyiHkhAx8_gz_92VX2iOTPe1wErxV5_c1EhS53w9oRPcw2qkgA4rmJXlFijr6v3P2mtBd4dZ4iPGF0T86xXT-IfGg7Hcovv88ibHNHSqgcB2gt0MprZqNiSEiYXpyHDjsa_8Rcn0kz0N42LmqKrxOD_kYS8Re8Y2sxH76SHSN5l6LvROc7VNzKlkcXOOlcKWFrkbqpqjJejIgiw0T6JKlm6HOvd5pOtgaO3x_cJnF3gbdOJdDHDYfLL3amBhvR4ej7P15AWaKE9TqHkw4s6xiZZqeqx5TogQbZmq1Ecffg6KvgfmT6JHSBoLaE9xtny6ffGUE5tQHkm9gLiPjK8AvK3uqBmPqy9jI2cUMoeElLkfKn8qgMKQyR1y927rCK4CwaI_o8XUHpyTvxa2ErXrgmiaGT-hIc8Xj20gfUAkePpUPlDylhScd06MKUTKEB4kdkBVUwtT97tjotuTHyP-cuMiCmurljslULVXjQqXR4mgye_aPNczCFswDat3FV2s2YsqOfGs7isZC0T7Wx34A1GLULE-72YsflHIi1YKMn3qyxph2lszxzzBupTvtE-D7sIkQhjCv_B4NMu3TQ8mBTKK3yOczGSQrBMaA3c-MRKIRdUW8bBCBNudnfjVm3dC1VYweqsA-NBT_kt9iV1dHA8SIOx-3LKlL0E1fS-LQ7bd3F_3YO0u6OL8SMvGbmtFA0MjH093OZ2GW354yns-gCTudG73eIewSeIRrBWDrvzwoTdQnFJfh0Te3Ob69GCCrrAGLmTfPr_cdk-cyT5JAZCeuAqIW_GnokHeWLTKxeHb6d4czDhPpebFXCZHBhj9pmZKvBXob9anSKIPgTWEF8D-ihDvi0IQ1hEYWMcq1NNY-sBENU08MaI-4jUQ06LtdWlZp9lXxdN2k2DwKhQ-LLklB-TDkTE4wvwUG5xJS0?></g></svg>